<svg xmlns="http://www.w3.org/2000/svg" width="19" height="19" viewBox="0 0 19 19">
  <defs>
    <style>
      .cls-1 {
        fill: #64aa11;
        fill-rule: evenodd;
      }
    </style>
  </defs>
  <path id="whatsapp" class="cls-1" d="M1435,349l1.36-5.082a9.442,9.442,0,1,1,3.76,3.714Zm5.37-3.272,0.32,0.191a7.6,7.6,0,1,0-3.73-6.532,7.565,7.565,0,0,0,1.12,3.943l0.2,0.325-0.77,2.837Zm7.72-5.037a1.586,1.586,0,0,0-1.35-.3,2.974,2.974,0,0,0-.8.967,0.332,0.332,0,0,1-.43.094,6.1,6.1,0,0,1-3.05-2.6,0.372,0.372,0,0,1,.05-0.508,2.052,2.052,0,0,0,.55-0.9,1.977,1.977,0,0,0-.24-1.06,2.54,2.54,0,0,0-.79-1.179,1.081,1.081,0,0,0-1.17.174,2.35,2.35,0,0,0-.82,1.873,2.388,2.388,0,0,0,.08.594,4.626,4.626,0,0,0,.57,1.314,10.636,10.636,0,0,0,.59.905,9.365,9.365,0,0,0,2.59,2.4,7.844,7.844,0,0,0,1.62.765,3.571,3.571,0,0,0,1.87.3,2.288,2.288,0,0,0,1.71-1.264,1.192,1.192,0,0,0,.08-0.645A1.982,1.982,0,0,0,1448.09,340.688Z" transform="translate(-1435 -330)"/>
</svg>
