<svg xmlns="http://www.w3.org/2000/svg" width="18" height="19" viewBox="0 0 18 19"><defs>
    <style>
      .cls-1 {
        fill: #50137c;
        fill-rule: evenodd;
      }
    </style>
  </defs>
  <path id="telefone" class="cls-1" d="M1435,263.939c0.1,2.6,1.85,5.121,3.33,7.153a26.48,26.48,0,0,0,4.71,4.976,22.378,22.378,0,0,0,3.62,2.417,2.615,2.615,0,0,0,2.22.4c1.39-.4,4.6-2.047,4.06-3.853a6.207,6.207,0,0,0-2.09-2.395c-0.85-.7-2.34-1.936-3.33-0.783-0.6.575-1.22,1.9-2.15,1.987-1,.1-1.89-1.066-2.52-1.7a24.748,24.748,0,0,1-2.77-3.39c-0.77-1.262.19-1.784,1.13-2.47a3.027,3.027,0,0,0,1.18-1.127c0.39-.963-0.53-2.155-1.05-2.9a11.77,11.77,0,0,0-1.71-1.913c-0.83-.751-1.74-0.154-2.44.444A7.545,7.545,0,0,0,1435,263.939Z" transform="translate(-1435 -260)"/>
</svg>
