<svg xmlns="http://www.w3.org/2000/svg" width="152" height="48" viewBox="0 0 152.6 47.8">
    <defs>
        <style type="text/css">
            .st0{fill:#61163A;}
            .st1{fill:#7C174B;}
            .st2{fill:#323232;}
            .st3{fill:#6E1842;}
        </style>
    </defs>
    <title>UpNext digital commerce</title>
    <path class="st0" d="M17.1,30.2l4.1,4.1c1,1.2,2.9,1.4,4.1,0.4c0.7-0.6,1.1-1.4,1.1-2.3c0-0.1,0-0.2,0-0.3V12.6
			c0.1-1-0.2-1.9-0.9-2.7c-0.8-0.6-1.7-1-2.7-0.9H2.9c-1.6,0-3,1.3-3,2.9c0,0.8,0.3,1.5,0.8,2.1l4.4,4.4l0.1,0.1
			c0.6,0.7,1.4,1.1,2.3,1.1h8.2v8C15.8,28.6,16.2,29.6,17.1,30.2L17.1,30.2z"/>
    <path class="st1" d="M15.8,23.3l5.7,5.7c1.2,1.1,3.1,1,4.1-0.3c0.5-0.6,0.8-1.4,0.7-2.1v-14c0-2.5-1.2-3.6-3.6-3.6H8.6
			C7,9,5.7,10.3,5.7,12c0,0.7,0.3,1.4,0.7,1.9l5.7,5.7h3.7L15.8,23.3z"/>
    <path class="st2" d="M32.3,27.8V11.4c0-1.5,1.2-2.6,2.6-2.6s2.6,1.2,2.6,2.6v16.4c0,1.7,1.5,3,3.2,3c0,0,0,0,0,0H44V11.4
			c0-1.5,1.2-2.6,2.6-2.6s2.6,1.2,2.6,2.6v21.9c0,1.4-1.2,2.5-2.6,2.5c0,0,0,0,0,0h-5.9C36.2,35.9,32.4,32.3,32.3,27.8z"/>
    <path class="st2" d="M53.3,43V11.7c0-1.4,1.2-2.5,2.6-2.5c0,0,0,0,0,0h5.8c4.5-0.1,8.3,3.5,8.5,8v10.7c-0.1,4.5-3.9,8.1-8.5,8
			h-3.2V43c-0.1,1.4-1.3,2.6-2.8,2.5C54.4,45.4,53.4,44.3,53.3,43z M61.8,14.2h-3.2v16.7h3.2c1.7,0.1,3.1-1.3,3.2-3c0,0,0,0,0,0
			V17.2C65,15.5,63.6,14.2,61.8,14.2C61.8,14.2,61.8,14.2,61.8,14.2z"/>
    <path class="st3" d="M74.3,33.6V11.7c0-1.4,1.2-2.5,2.6-2.5c0,0,0,0,0.1,0h5.8c4.5-0.1,8.3,3.5,8.5,8v16.4
			c-0.1,1.4-1.2,2.5-2.6,2.5c-1.4,0.1-2.6-1-2.7-2.4c0,0,0,0,0,0V17.2c0-1.7-1.4-3.1-3.1-3.1c0,0-0.1,0-0.1,0h-3.2v19.5
			c-0.1,1.4-1.2,2.5-2.6,2.5C75.6,36.2,74.4,35.1,74.3,33.6C74.3,33.7,74.3,33.6,74.3,33.6z"/>
    <path class="st3" d="M95.4,28.1V17c0.2-4.7,4.2-8.3,8.9-8.1c4.4,0.2,7.8,3.7,8.1,8.1v5.5c-0.1,1.4-1.2,2.5-2.6,2.5h-9v3
			c0,1.3,0.8,2.4,2,2.8c1.2,0.5,2.6,0.2,3.5-0.7c0.5-0.5,1.1-0.8,1.8-0.8c0.7,0,1.4,0.3,1.9,0.8c0.5,0.5,0.8,1.1,0.8,1.8
			c0,0.7-0.3,1.3-0.8,1.8c-2.5,2.3-6.1,3-9.2,1.7C97.5,34.4,95.4,31.4,95.4,28.1z M100.6,17v3h6.4v-3c0-1.8-1.4-3.2-3.2-3.2
			C102,13.8,100.6,15.2,100.6,17L100.6,17z"/>
    <path class="st3" d="M114.9,32.4l5.8-10.1l-5.6-9.6c-0.7-1.1-0.3-2.6,0.8-3.2c0.1,0,0.2-0.1,0.2-0.1c1.3-0.6,2.8-0.2,3.6,0.9
			l4,6.9l4-6.9c0.8-1.2,2.3-1.6,3.6-0.9c1.2,0.5,1.7,1.9,1.2,3.1c0,0.1-0.1,0.2-0.1,0.3l-5.6,9.6l5.8,10.1c0.7,1.1,0.4,2.5-0.7,3.2
			c-0.1,0.1-0.2,0.1-0.3,0.1c-1.2,0.7-2.8,0.3-3.6-0.9l-4.3-7.3l-4.2,7.3c-0.7,1.2-2.3,1.6-3.6,0.9c-1.2-0.5-1.7-1.9-1.2-3.1
			C114.8,32.6,114.9,32.5,114.9,32.4z"/>
    <path class="st3" d="M134.9,12.2c0-1.4,1.2-2.5,2.6-2.5c0,0,0,0,0,0h2V2.5c0-1.5,1.2-2.6,2.6-2.6c1.4,0,2.6,1.2,2.6,2.6v7.2h3.2
			c1.4,0,2.5,1.1,2.5,2.5s-1.1,2.5-2.5,2.5h-3.2v13.9c0,1.7,1.4,3.1,3.1,3.1c0,0,0.1,0,0.1,0c1.4,0,2.5,1.1,2.5,2.5
			c0,1.4-1.1,2.5-2.5,2.5c-4.5,0.1-8.3-3.5-8.5-8v-14h-2C136.1,14.8,135,13.6,134.9,12.2C134.9,12.2,134.9,12.2,134.9,12.2z"/>
    <path class="st2" d="M74.1,44.1v-2c0-0.8,0.7-1.5,1.5-1.5h0.6V39c0-0.3,0.2-0.5,0.5-0.5S77,38.8,77,39v6.1c0,0.3-0.2,0.5-0.5,0.5
				h-1C74.7,45.6,74.1,45,74.1,44.1z M75,42.2v2c0,0.3,0.2,0.6,0.6,0.6h0.6v-3.1h-0.6C75.2,41.6,75,41.8,75,42.2z"/>
    <path class="st2" d="M79.5,39.6c0-0.3,0.2-0.6,0.6-0.6s0.6,0.2,0.6,0.6s-0.2,0.6-0.6,0.6S79.5,39.9,79.5,39.6z M80.1,45.7
				c-0.3,0-0.5-0.2-0.5-0.5v-4.1c0-0.3,0.2-0.5,0.5-0.5s0.5,0.2,0.5,0.5v4.1C80.5,45.5,80.3,45.7,80.1,45.7z"/>
    <path class="st2" d="M83,44.1v-2c0-0.8,0.7-1.5,1.5-1.5h1c0.3,0,0.5,0.2,0.5,0.5v5.1c0,0.6-0.3,1.1-0.9,1.4
				c-0.6,0.2-1.2,0.1-1.6-0.3c-0.1-0.1-0.1-0.2-0.1-0.3s0.1-0.2,0.1-0.3c0.1-0.1,0.2-0.1,0.3-0.1c0.1,0,0.2,0.1,0.3,0.1
				c0.2,0.2,0.4,0.2,0.6,0.1c0.2-0.1,0.3-0.3,0.3-0.5v-0.6h-0.6C83.6,45.6,83,45,83,44.1z M83.9,42.2v2c0,0.3,0.2,0.6,0.6,0.6H85
				v-3.1h-0.6C84.1,41.6,83.9,41.8,83.9,42.2z"/>
    <path class="st2" d="M88.4,39.6c0-0.3,0.2-0.6,0.6-0.6s0.6,0.2,0.6,0.6s-0.2,0.6-0.6,0.6S88.4,39.9,88.4,39.6z M88.9,45.7
				c-0.3,0-0.5-0.2-0.5-0.5v-4.1c0-0.3,0.2-0.5,0.5-0.5s0.5,0.2,0.5,0.5v4.1C89.4,45.5,89.2,45.7,88.9,45.7z"/>
    <path class="st2" d="M91.5,41.1c0-0.3,0.2-0.5,0.5-0.5h0.4V39c0-0.3,0.2-0.5,0.5-0.5s0.5,0.2,0.5,0.5v1.6h0.6
				c0.3,0,0.5,0.2,0.5,0.5s-0.2,0.5-0.5,0.5h-0.6v2.6c0,0.3,0.2,0.6,0.6,0.6c0.3,0,0.5,0.2,0.5,0.5c0,0.3-0.2,0.5-0.5,0.5
				c-0.8,0-1.5-0.7-1.5-1.5v-2.6H92C91.7,41.6,91.5,41.4,91.5,41.1z"/>
    <path class="st2" d="M98.1,42.1c0-0.2-0.1-0.4-0.3-0.5c-0.2-0.1-0.4,0-0.6,0.1c-0.1,0.1-0.2,0.1-0.3,0.1c-0.1,0-0.2,0-0.3-0.1
				c-0.1-0.1-0.1-0.2-0.1-0.3s0.1-0.2,0.1-0.3c0.4-0.4,1-0.6,1.6-0.3c0.6,0.2,0.9,0.7,0.9,1.4v3.1c0,0.3-0.2,0.5-0.5,0.5h-1
				c-0.8,0-1.5-0.7-1.5-1.5s0.7-1.5,1.5-1.5h0.6V42.1z M97,44.1c0,0.3,0.2,0.6,0.6,0.6h0.6v-1.1h-0.6C97.2,43.6,97,43.8,97,44.1z"/>
    <path class="st2" d="M101.5,44.5V39c0-0.3,0.2-0.5,0.5-0.5c0.3,0,0.5,0.2,0.5,0.5v5.5c0,0.1,0.1,0.2,0.2,0.3
				c0.2,0.1,0.3,0.4,0.2,0.6c-0.1,0.2-0.4,0.3-0.6,0.2C101.7,45.4,101.5,44.9,101.5,44.5z"/>
    <path class="st2" d="M108.3,44.2v-2.1c0-0.6,0.3-1.1,0.9-1.4c0.6-0.2,1.2-0.1,1.6,0.3c0.1,0.1,0.1,0.2,0.1,0.3
				c0,0.1-0.1,0.2-0.1,0.3c-0.1,0.1-0.2,0.1-0.3,0.1c-0.1,0-0.2-0.1-0.3-0.1c-0.2-0.2-0.4-0.2-0.6-0.1c-0.2,0.1-0.3,0.3-0.3,0.5v2.1
				c0,0.2,0.1,0.4,0.3,0.5c0.2,0.1,0.5,0,0.6-0.1c0.1-0.1,0.2-0.1,0.3-0.1c0.1,0,0.2,0.1,0.3,0.1c0.1,0.1,0.1,0.2,0.1,0.3
				c0,0.1-0.1,0.2-0.1,0.3c-0.4,0.4-1,0.6-1.6,0.3C108.6,45.3,108.3,44.8,108.3,44.2z"/>
    <path class="st2" d="M113.1,44.2v-2.1c0-0.8,0.7-1.5,1.5-1.5s1.5,0.7,1.5,1.5v2.1c0,0.8-0.7,1.5-1.5,1.5S113.1,45,113.1,44.2z
				 M114,42.1v2.1c0,0.3,0.2,0.6,0.6,0.6s0.6-0.2,0.6-0.6v-2.1c0-0.3-0.2-0.6-0.6-0.6S114,41.8,114,42.1z"/>
    <path class="st2" d="M119.4,45.2c0,0.3-0.2,0.5-0.5,0.5c-0.3,0-0.5-0.2-0.5-0.5v-4.1c0-0.3,0.2-0.5,0.5-0.5h3.1
				c0.8,0,1.5,0.7,1.5,1.5v3c0,0.3-0.2,0.5-0.5,0.5c-0.3,0-0.5-0.2-0.5-0.5v-3c0-0.3-0.2-0.6-0.6-0.6h-0.6v3.6
				c0,0.3-0.2,0.5-0.5,0.5c-0.3,0-0.5-0.2-0.5-0.5v-3.6h-1.1V45.2z"/>
    <path class="st2" d="M126.9,45.2c0,0.3-0.2,0.5-0.5,0.5c-0.3,0-0.5-0.2-0.5-0.5v-4.1c0-0.3,0.2-0.5,0.5-0.5h3.1
				c0.8,0,1.5,0.7,1.5,1.5v3c0,0.3-0.2,0.5-0.5,0.5c-0.3,0-0.5-0.2-0.5-0.5v-3c0-0.3-0.2-0.6-0.6-0.6H129v3.6c0,0.3-0.2,0.5-0.5,0.5
				c-0.3,0-0.5-0.2-0.5-0.5v-3.6h-1.1V45.2z"/>
    <path class="st2" d="M133.4,44.2v-2.1c0-0.8,0.7-1.5,1.5-1.5c0.8,0,1.5,0.7,1.5,1.5v1c0,0.3-0.2,0.5-0.5,0.5h-1.6v0.6
				c0,0.2,0.1,0.4,0.3,0.5c0.2,0.1,0.5,0,0.6-0.1c0.1-0.1,0.2-0.1,0.3-0.1c0.1,0,0.2,0.1,0.3,0.1c0.1,0.1,0.1,0.2,0.1,0.3
				c0,0.1,0,0.2-0.1,0.3c-0.4,0.4-1.1,0.6-1.6,0.3C133.8,45.3,133.4,44.8,133.4,44.2z M134.3,42.1v0.6h1.1v-0.6
				c0-0.3-0.2-0.6-0.6-0.6S134.3,41.8,134.3,42.1z"/>
    <path class="st2" d="M138.7,45.2v-4.1c0-0.3,0.2-0.5,0.5-0.5h1c0.3,0,0.5,0.1,0.7,0.2c0.2,0.1,0.3,0.4,0.2,0.6
				c-0.1,0.2-0.4,0.3-0.6,0.2c-0.1-0.1-0.2-0.1-0.3-0.1h-0.6v3.6c0,0.3-0.2,0.5-0.5,0.5S138.7,45.5,138.7,45.2z"/>
    <path class="st2" d="M143,44.2v-2.1c0-0.6,0.3-1.1,0.9-1.4c0.6-0.2,1.2-0.1,1.6,0.3c0.1,0.1,0.1,0.2,0.1,0.3
				c0,0.1-0.1,0.2-0.1,0.3c-0.1,0.1-0.2,0.1-0.3,0.1c-0.1,0-0.2-0.1-0.3-0.1c-0.2-0.2-0.4-0.2-0.6-0.1c-0.2,0.1-0.3,0.3-0.3,0.5v2.1
				c0,0.2,0.1,0.4,0.3,0.5c0.2,0.1,0.5,0,0.6-0.1c0.1-0.1,0.2-0.1,0.3-0.1c0.1,0,0.2,0.1,0.3,0.1c0.1,0.1,0.1,0.2,0.1,0.3
				c0,0.1-0.1,0.2-0.1,0.3c-0.4,0.4-1,0.6-1.6,0.3C143.4,45.3,143,44.8,143,44.2z"/>
    <path class="st2" d="M147.8,44.2v-2.1c0-0.8,0.7-1.5,1.5-1.5c0.8,0,1.5,0.7,1.5,1.5v1c0,0.3-0.2,0.5-0.5,0.5h-1.6v0.6
				c0,0.2,0.1,0.4,0.3,0.5c0.2,0.1,0.5,0,0.6-0.1c0.1-0.1,0.2-0.1,0.3-0.1c0.1,0,0.2,0.1,0.3,0.1c0.1,0.1,0.1,0.2,0.1,0.3
				c0,0.1,0,0.2-0.1,0.3c-0.4,0.4-1.1,0.6-1.6,0.3C148.2,45.3,147.8,44.8,147.8,44.2z M148.8,42.1v0.6h1.1v-0.6
				c0-0.3-0.2-0.6-0.6-0.6S148.8,41.8,148.8,42.1z"/>
</svg>