<svg xmlns="http://www.w3.org/2000/svg" width="20" height="20" viewBox="0 0 20 20">
  <metadata><?xpacket begin="﻿" id="W5M0MpCehiHzreSzNTczkc9d"?>
<x:xmpmeta xmlns:x="adobe:ns:meta/" x:xmptk="Adobe XMP Core 5.6-c140 79.160451, 2017/05/06-01:08:21        ">
   <rdf:RDF xmlns:rdf="http://www.w3.org/1999/02/22-rdf-syntax-ns#">
      <rdf:Description rdf:about=""/>
   </rdf:RDF>
</x:xmpmeta>
                                                                                                    
                                                                                                    
                                                                                                    
                                                                                                    
                                                                                                    
                                                                                                    
                                                                                                    
                                                                                                    
                                                                                                    
                                                                                                    
                                                                                                    
                                                                                                    
                                                                                                    
                                                                                                    
                                                                                                    
                                                                                                    
                                                                                                    
                                                                                                    
                                                                                                    
                                                                                                    
                           
<?xpacket end="w"?></metadata>
<defs>
    <style>
      .cls-1 {
        fill: #8300d1;
        fill-rule: evenodd;
      }
    </style>
  </defs>
  <path class="cls-1" d="M309,135a2,2,0,0,1-2,2H291a2,2,0,0,1,0-4h16A2,2,0,0,1,309,135Zm0-8a2,2,0,0,1-2,2H291a2,2,0,0,1,0-4h16A2,2,0,0,1,309,127Zm0,16a2,2,0,0,1-2,2H291a2,2,0,0,1,0-4h16A2,2,0,0,1,309,143Z" transform="translate(-289 -125)"/>
</svg>
