<svg xmlns="http://www.w3.org/2000/svg" width="27.59" height="27.594" viewBox="0 0 27.59 27.594">
<defs>
    <style>
      .cls-1 {
        fill: #fff;
      }

      .cls-1, .cls-2 {
        fill-rule: evenodd;
      }

      .cls-2 {
        fill: #46c152;
      }
    </style>
  </defs>
  <path class="cls-1" d="M1116.55,7.407h-7.1a0.585,0.585,0,0,0-.58.589v5.085a0.585,0.585,0,0,0,.58.589h5.11c4.95,0,7.28,3.842,7.28,8.022s-2.5,7.057-7.26,7.065h-5.13a0.585,0.585,0,0,0-.58.59v5.06a0.585,0.585,0,0,0,.58.59l7.13,0c8.71-.015,13.27-7.586,13.27-13.3,0-7.644-4.24-14.286-13.3-14.286" transform="translate(-1102.25 -7.406)"/>
  <path class="cls-2" d="M1108.28,26.722h-5.43a0.587,0.587,0,0,1-.59-0.589V16.275a0.587,0.587,0,0,1,.59-0.59h5.43a0.587,0.587,0,0,1,.59.59v9.858a0.587,0.587,0,0,1-.59.589" transform="translate(-1102.25 -7.406)"/>
</svg>
