<svg xmlns="http://www.w3.org/2000/svg" width="22" height="22" viewBox="0 0 22 22">
<defs>
    <style>
      .cls-1 {
        fill: #fff;
        fill-rule: evenodd;
      }
    </style>
  </defs>
  <path class="cls-1" d="M1279,70.991A11.008,11.008,0,1,0,1289.99,82,11,11,0,0,0,1279,70.991Zm0,20.555A9.547,9.547,0,1,1,1288.53,82,9.543,9.543,0,0,1,1279,91.546Zm0-3.086a1.413,1.413,0,1,1,1.41-1.413A1.411,1.411,0,0,1,1279,88.46Zm2.56-6.72-1.17,1.171a2.031,2.031,0,0,0-.59,1.428v0.082h-1.61V84.34a3.657,3.657,0,0,1,1.06-2.57l1.17-1.172a1.988,1.988,0,0,0,.59-1.426,2.015,2.015,0,1,0-4.03,0h-1.61A3.63,3.63,0,1,1,1281.56,81.74Z" transform="translate(-1268 -71)"/>
</svg>
