<svg id="Layer_1" data-name="Layer 1" xmlns="http://www.w3.org/2000/svg" viewBox="0 0 400 400">
    <defs>
        <style>.cls-1{fill:#50137c;fill-rule:evenodd;}</style>
    </defs>
    <path id="twitter" class="cls-1" d="M398,82.34a161.51,161.51,0,0,1-47,12.37,78,78,0,0,0,36-43A163.36,163.36,0,0,1,335.39,70.6,81.61,81.61,0,0,0,275.92,46a80.4,80.4,0,0,0-81.39,77.63,66.94,66.94,0,0,0,3.13,17.69A232.26,232.26,0,0,1,30.19,60.12a68.31,68.31,0,0,0-11,39.28,76.45,76.45,0,0,0,36,64.64,83.4,83.4,0,0,1-37.57-9.71v.94a79.19,79.19,0,0,0,65.74,76.38,92.89,92.89,0,0,1-37.57,1.09,82.42,82.42,0,0,0,76.7,54.16A168.65,168.65,0,0,1,22.34,320.08,160.81,160.81,0,0,1,2,319a235.75,235.75,0,0,0,125.21,34.9c123.64,3.39,226.63-94.09,230-217.73,0-1.15,0-2.29.06-3.43v-10A163.69,163.69,0,0,0,398,82.34Z"/>
</svg>