<svg id="Layer_1" data-name="Layer 1" xmlns="http://www.w3.org/2000/svg" viewBox="0 0 400 400">
    <defs>
        <style>.cls-1{fill:#fff;fill-rule:evenodd;}</style>
    </defs>
    <path id="whatsapp" class="cls-1" d="M2.26,398.23,30.64,294.35A179.34,179.34,0,0,1,6.05,201.64C3.83,93.49,89.71,4,197.86,1.81S395.5,85.47,397.7,193.63,314,391.25,205.88,393.47c-1.64,0-3.3,0-4.95,0a198.13,198.13,0,0,1-92.72-23.27Zm111.64-67,7.58,4A154.91,154.91,0,1,0,43.91,201.64a152.28,152.28,0,0,0,22.71,80.6l3.79,6.63L55.27,347ZM274.73,228.32a33.93,33.93,0,0,0-28.38-6.24,72.76,72.76,0,0,0-17,19.86,5.2,5.2,0,0,1-7,2.24,5.36,5.36,0,0,1-.57-.34,124.35,124.35,0,0,1-64.34-53.17,7.69,7.69,0,0,1,1.88-10.41,60,60,0,0,0,11.35-18.35A44,44,0,0,0,165,140.33a44.84,44.84,0,0,0-17-24.21,23.32,23.32,0,0,0-24.59,3.59,49.16,49.16,0,0,0-17,38.22c0,4.17,1.88,8.33,1.88,12.3a76.84,76.84,0,0,0,13.25,26.68c3.79,6.43,7.58,12.68,11.35,18.54a177.65,177.65,0,0,0,54.88,49,133.74,133.74,0,0,0,32.16,15.7,76,76,0,0,0,39.73,6,47.15,47.15,0,0,0,36-25.92,31,31,0,0,0,1.88-13.05,41.36,41.36,0,0,0-22.65-18.93Z"/>
</svg>