<svg xmlns="http://www.w3.org/2000/svg" width="23" height="23" viewBox="0 0 23 23">
<defs>
    <style>
      .cls-1 {
        fill: #50137c
      }
    </style>
  </defs>
  <path class="cls-1" d="M1540.48,74a2.208,2.208,0,0,1,2.15,1.686l0.98,3.733h14.18a2.22,2.22,0,0,1,1.74.841,2.193,2.193,0,0,1,.41,1.881l-1.82,7.432a2.2,2.2,0,0,1-2.15,1.681h-9.88a2.207,2.207,0,0,1-2.15-1.681l-0.63-2.591h0l-0.01-.047-2.37-9.8a1.359,1.359,0,0,0-1.33-1.039H1537V74h3.48Zm5.36,14.662a1.115,1.115,0,0,0,1.09.853h8.14a1.115,1.115,0,0,0,1.09-.853l1.49-6.12a1.092,1.092,0,0,0-.2-0.955,1.136,1.136,0,0,0-.89-0.427h-12.54Zm-0.46,3.693a2.323,2.323,0,1,1-2.33,2.323A2.326,2.326,0,0,1,1545.38,92.355Zm11.3,0a2.323,2.323,0,1,1-2.33,2.323A2.332,2.332,0,0,1,1556.68,92.355Z" transform="translate(-1537 -74)"/>
</svg>
