<svg xmlns="http://www.w3.org/2000/svg" width="34" height="34" viewBox="0 0 34 34">
<defs>
    <style>
      .cls-1 {
        fill: #fff;
        fill-rule: evenodd;
      }
    </style>
  </defs>
  <path class="cls-1" d="M1582.11,49.864a8.69,8.69,0,0,0-4.97-4.972,12.529,12.529,0,0,0-4.13-.79c-1.81-.083-2.39-0.1-7.01-0.1s-5.2.02-7.01,0.1a12.529,12.529,0,0,0-4.13.79,8.69,8.69,0,0,0-4.97,4.972,12.421,12.421,0,0,0-.79,4.127c-0.08,1.813-.1,2.392-0.1,7.009s0.02,5.2.1,7.009a12.412,12.412,0,0,0,.79,4.126,8.691,8.691,0,0,0,4.97,4.972,12.535,12.535,0,0,0,4.13.79c1.81,0.083,2.39.1,7.01,0.1s5.2-.02,7.01-0.1a12.535,12.535,0,0,0,4.13-.79,8.691,8.691,0,0,0,4.97-4.972,12.412,12.412,0,0,0,.79-4.126c0.08-1.814.1-2.392,0.1-7.009s-0.02-5.2-.1-7.009A12.421,12.421,0,0,0,1582.11,49.864ZM1566,69.729A8.73,8.73,0,1,1,1574.73,61,8.73,8.73,0,0,1,1566,69.729Zm9.07-15.764a2.04,2.04,0,1,1,2.04-2.04A2.045,2.045,0,0,1,1575.07,53.965ZM1571.67,61a5.67,5.67,0,1,1-5.67-5.667A5.669,5.669,0,0,1,1571.67,61Z" transform="translate(-1549 -44)"/>
</svg>
