<svg version="1.1" id="Camada_1" xmlns="http://www.w3.org/2000/svg" xmlns:xlink="http://www.w3.org/1999/xlink" x="0px" y="0px"
	 viewBox="0 0 1590.9 219.5" style="enable-background:new 0 0 1590.9 219.5;" xml:space="preserve">
<style type="text/css">
	.st0{clip-path:url(#SVGID_2_);fill:#FFFFFF;}
	.st1{clip-path:url(#SVGID_2_);fill:#46C152;}
</style>
<g>
	<defs>
		<rect id="SVGID_1_" width="1590.9" height="219.5"/>
	</defs>
	<clipPath id="SVGID_2_">
		<use xlink:href="#SVGID_1_"  style="overflow:visible;"/>
	</clipPath>
	<path class="st0" d="M978.8,45.2C947.3,44.1,921,67,919.9,96.5c-1,29.5,23.6,54.3,55.1,55.4c31.5,1.1,57.8-21.9,58.9-51.3
		C1034.9,71.1,1010.2,46.3,978.8,45.2 M975.9,121.3c-11.9-0.4-21.3-10.9-20.8-23.4c0.4-12.5,10.5-22.3,22.4-21.9
		c11.9,0.4,21.3,10.9,20.8,23.4C997.8,111.9,987.8,121.7,975.9,121.3"/>
	<path class="st0" d="M480.4,60V38.5c0-1.8-1.4-3.2-3.2-3.2h-31.4v-32c0-1.8-1.4-3.2-3.2-3.2h-30.7c-1.8,0-3.2,1.4-3.2,3.2v95.2
		c0,57.9,46,53.3,68.9,50.5c1.6-0.2,2.8-1.6,2.8-3.2v-21.4c0-1.8-1.5-3.2-3.3-3.2c-8.6,0.2-31.3-1.2-31.3-22.7V63.2h31.4
		C479,63.2,480.4,61.8,480.4,60"/>
	<path class="st0" d="M685.8,123.2c0-1.5-1-2.9-2.5-3.2c-9.2-2-19-7.3-19-21.5V3.3c0-1.8-1.4-3.2-3.2-3.2h-30.7
		c-1.8,0-3.2,1.4-3.2,3.2v95.2c0,48.2,31.8,53,55.6,51.7c1.7-0.1,3-1.5,3-3.2V123.2z"/>
	<path class="st0" d="M344.9,46.3c0,0-12.6,2.2-25.2,9.3v-4.9c0-0.8-0.6-3-3-3h-30.9c-1.8,0-3.2,1.4-3.2,3.2v95.6
		c0,1.8,1.4,3.2,3.2,3.2h30.7c1.8,0,3.2-1.4,3.2-3.2v-56c0-10.1,11.4-14.4,19.8-14.4c7.3,0,11.8,7.8,11.8,16v54.4
		c0,1.8,1.4,3.2,3.2,3.2h30.7c1.8,0,3.2-1.4,3.2-3.2V88.3C388.3,88.3,390.8,39.5,344.9,46.3"/>
	<path class="st0" d="M860,46.3c0,0-12.6,2.2-25.2,9.3V3.2c0-1.8-1.4-3.2-3.2-3.2h-30.7c-1.8,0-3.2,1.4-3.2,3.2v143.3
		c0,1.8,1.4,3.2,3.2,3.2h30.7c1.8,0,3.2-1.4,3.2-3.2V91.4c0,0-0.9-10,12.7-14c18.2-5.4,18.9,10.9,18.9,10.9v58.1
		c0,1.8,1.4,3.2,3.2,3.2h30.7c1.8,0,3.2-1.4,3.2-3.2V88.3C903.5,88.3,905.9,39.5,860,46.3"/>
	<path class="st0" d="M752.4,89.1c-17.2-5.5-22.7-8.1-21.4-13.9c0.5-2.2,3.6-3.7,10.6-3.7c6.2,0,15.4,1.2,28.4,4.2
		c1.9,0.4,3.8-1.2,3.8-3.2V53.3c0-1.9-1.4-2.6-2.2-2.9c-6.8-2.2-18.2-5.3-31.8-5.3c-28.2,0-44.5,13.3-44.5,33.3
		c0,18.8,13.4,25.2,26.3,29.4c12.2,4,23.9,6.2,23.9,12.3c0,4.7-6.7,5.9-13.1,5.9c-7.8,0-23.5-4.5-30.4-6.5c-2.1-0.6-4.1,0.9-4.1,3.1
		c0,6.4,0,15.4,0.1,19.4c0,1.2,0.9,2.3,1.9,2.8c22.2,11.2,80.8,13.9,80.8-23.9C780.7,108.8,776.4,96.8,752.4,89.1"/>
	<path class="st0" d="M219.7,45.3c-33,0-56.7,19.8-56.7,51.2c0,28.9,17.4,55.4,55.1,55.4c15,0,29.2-3.1,39.2-7.4c1.2-0.5,2-1.7,2-3
		v-17.8c0-2.1-2-3.6-4-3.1c-5.9,1.5-18,4-33.6,4c-23.8,0-24.6-18.7-24.6-18.7l65.5,0.1c2.4,0,4.4-2,4.4-4.4
		C266.9,53.3,236.1,45.3,219.7,45.3 M197.8,86.7c2.5-11.5,9.2-14.9,19.7-14.9c9.1,0,13.3,4.5,15.8,14.9H197.8z"/>
	<path class="st0" d="M78.1,0.1H39.3c-1.8,0-3.2,1.4-3.2,3.2v27.6c0,1.8,1.4,3.2,3.2,3.2h27.9C94.3,34,107,54.9,107,77.5
		c0,22.7-13.6,38.3-39.7,38.3l-28,0c-1.8,0-3.2,1.4-3.2,3.2v27.4c0,1.8,1.4,3.2,3.2,3.2l39,0c47.6-0.1,72.5-41.1,72.5-72.1
		C150.8,36.1,127.6,0.1,78.1,0.1"/>
	<path class="st1" d="M32.9,104.8H3.2c-1.8,0-3.2-1.4-3.2-3.2V48.2C0,46.4,1.4,45,3.2,45h29.7c1.8,0,3.2,1.4,3.2,3.2v53.5
		C36.1,103.4,34.7,104.8,32.9,104.8"/>
	<path class="st0" d="M1116.5,46.6c-11.9,0-21.9,4.8-28,8.5v-4.4c0-1.2-0.9-3-3-3h-30.9c-1.8,0-3.2,1.4-3.2,3.2V185
		c0,1.8,1.4,3.2,3.2,3.2h30.7c1.8,0,3.2-1.4,3.2-3.2v-39.8c8.2,5.1,17.1,7.8,26.6,7.8c43.3,0,49.7-37.1,49.7-55.8
		C1164.7,64.5,1139.3,46.6,1116.5,46.6 M1106.3,121.3c-11.9-0.4-21.3-10.9-20.8-23.4c0.4-12.5,10.5-22.3,22.4-21.9
		c11.9,0.4,21.3,10.9,20.8,23.4C1128.3,111.9,1118.2,121.7,1106.3,121.3"/>
	<path class="st0" d="M602.7,47.7h-30.9c-1.1,0-3,0.9-3,3V55c-6.1-3.7-16.1-8.4-27.9-8.4c-22.8,0-48.2,18-48.2,50.6
		c0,18.7,6.3,55.8,49.7,55.8c9.4,0,18.2-2.6,26.4-7.7v1.4c0,1.2,0.9,3,3,3h30.9c1.8,0,3.2-1.4,3.2-3.2V50.9
		C605.9,49.1,604.5,47.7,602.7,47.7 M549.5,121.3c-11.9-0.4-21.3-10.9-20.8-23.4c0.4-12.5,10.5-22.3,22.4-21.9
		c11.9,0.4,21.3,10.9,20.8,23.4C571.5,111.9,561.5,121.7,549.5,121.3"/>
	<path class="st1" d="M1407.6,101.2c0,26.4-20.8,51.9-55.6,51.9c-33,0-53.3-21.3-55.4-44.4c-0.2-2.1,1.5-4,3.7-4h28.6
		c1.6,0,2.9,1.1,3.5,2.5c2.3,5.8,9.6,10.5,19.1,10.5c11.6,0,21-6.6,21-18.5c0-11-8.5-18.1-21-18.1c-8.1,0-16,4.1-19.3,10.8h-30.4
		c-2.2,0-3.9-2-3.6-4.2l12.4-81.1c0.3-1.8,1.8-3.1,3.6-3.1h79.5c2,0,3.7,1.6,3.7,3.7v25.9c0,2-1.6,3.7-3.7,3.7h-53l-2.7,16.6
		c6.6-2.1,13.9-3.3,21.8-3.3C1386.7,50.1,1407.6,71.3,1407.6,101.2"/>
	<path class="st1" d="M1439.9,90.9h-17.3l-2.9,8c-0.2,0.6-0.7,0.9-1.3,0.9h-8.8c-1,0-1.7-1-1.3-1.9l16.1-44.8
		c0.2-0.6,0.7-0.9,1.3-0.9h11c0.6,0,1.1,0.4,1.3,0.9l16.1,44.8c0.3,0.9-0.4,1.9-1.3,1.9h-8.8c-0.6,0-1.1-0.4-1.3-0.9L1439.9,90.9z
		 M1436.1,80.1l-4.8-13.3l-4.8,13.3H1436.1z"/>
	<path class="st1" d="M1501.7,54.1v44.3c0,0.8-0.6,1.4-1.4,1.4h-9.2c-0.5,0-0.9-0.2-1.2-0.6l-20.2-28v27.2c0,0.8-0.6,1.4-1.4,1.4
		h-8.6c-0.8,0-1.4-0.6-1.4-1.4V54.1c0-1.1,0.9-1.9,1.9-1.9h8.5c0.6,0,1.2,0.3,1.6,0.8l20,27.8V54.1c0-1.1,0.9-1.9,1.9-1.9h7.6
		C1500.8,52.2,1501.7,53,1501.7,54.1"/>
	<path class="st1" d="M1506.4,76c0-13.6,10.9-24.5,24.5-24.5c13.6,0,24.5,10.9,24.5,24.5c0,13.6-10.9,24.5-24.5,24.5
		C1517.3,100.5,1506.4,89.6,1506.4,76 M1543.9,76c0-7.5-5.2-13.7-13.1-13.7c-7.8,0-13.1,6.2-13.1,13.7c0,7.5,5.2,13.7,13.1,13.7
		C1538.7,89.7,1543.9,83.5,1543.9,76"/>
	<path class="st1" d="M1567.7,83.9c0.9,0,1.7,0.6,1.9,1.5c0.6,2.9,2.8,4.3,5.6,4.3c3,0,4.4-1.5,4.4-3c0-2.3-2.5-3.3-7.5-6.3
		c-11.1-6.8-12.9-10.7-12.9-16.2c0-7.6,6.4-12.8,14.8-12.8c9.1,0,15.1,6.5,15.7,14.9c0.1,0.8-0.6,1.5-1.4,1.5h-8.6
		c-0.7,0-1.3-0.5-1.4-1.2c-0.3-3.1-2-4.5-4.3-4.5c-1.8,0-3.4,0.9-3.4,2.6c0,1.9,1.3,3,5.8,5.5c9.9,5.7,14.7,9.9,14.7,16.9
		c0,8.6-7.4,13.2-15.8,13.2c-10.6,0-16-7.2-17-14.4c-0.1-1.2,0.8-2.2,1.9-2.2H1567.7z"/>
	<path class="st1" d="M1347.1,186.4c-21.4,0-40.9-7.9-55.9-20.9c-1.5-1.3-3.7-1.2-5,0.1l-18.3,18.3c-1.5,1.5-1.4,3.9,0.1,5.3
		c21,18.8,48.7,30.3,79.1,30.3c59,0,108.1-43.3,117.2-99.8c0.4-2.2-1.4-4.2-3.6-4.2h-26.3c-1.7,0-3.2,1.2-3.6,2.9
		C1422.6,157.2,1388.2,186.4,1347.1,186.4"/>
	<path class="st1" d="M1218.4,119.9h80.4v29.6c0,2-1.6,3.7-3.7,3.7h-109.2c-2,0-3.7-1.6-3.7-3.7v-29.6c0-48.6,71.8-44,71.8-69.7
		c0-7.1-5.4-13.3-16.2-13.3c-10.3,0-18.4,4.3-20,11.6c-0.4,1.7-1.7,2.9-3.4,2.9h-28.3c-2.1,0-3.9-1.8-3.7-4
		c2.4-24.7,26.7-43.7,55.8-43.7c28.6,0,51,18.3,51,47.7C1289.3,101,1218.4,96,1218.4,119.9"/>
</g>
</svg>
